<svg width="95" height="119" viewBox="0 0 95 119" fill="none" xmlns="http://www.w3.org/2000/svg">
<path fill-rule="evenodd" clip-rule="evenodd" d="M89.2582 60.6175C89.2582 83.7074 75.0456 102.428 57.5186 102.428C39.9887 102.428 25.779 83.7074 25.779 60.6175C25.779 37.5276 39.9887 18.8068 57.5186 18.8068C75.0456 18.8068 89.2582 37.5276 89.2582 60.6175Z" fill="#FFA400"/>
<path fill-rule="evenodd" clip-rule="evenodd" d="M32.8492 63.5666L34.4466 66.0645C33.7479 65.3483 33.2522 64.4977 32.8492 63.5666ZM38.5491 38.1907C38.5014 38.1728 38.4506 38.1579 38.4058 38.137L36.883 42.3449C37.5668 41.0109 38.1013 39.6172 38.5491 38.1907ZM29.0482 56.5265C28.8481 58.5857 28.9825 60.636 29.2154 62.6832C28.4958 61.1284 28.4719 58.2276 29.0482 56.5265ZM71.0591 30.9954C70.9098 30.8761 70.7754 30.7776 70.65 30.6701C69.8528 29.9837 69.0795 29.2675 68.2614 28.6109C66.7684 27.4202 65.1322 26.4503 63.3884 25.6654C60.0497 24.1639 56.4042 23.4687 52.7469 23.636C52.1497 23.6599 51.5316 23.6569 50.9583 23.8867C50.1999 24.1941 49.4505 24.5254 48.6981 24.8566C48.2813 25.0584 47.9257 25.3674 47.6679 25.7519C46.562 27.2495 45.6426 28.8759 44.9299 30.5955C44.282 32.1205 43.6938 33.6754 43.0847 35.2153C43.0548 35.2899 43.0608 35.3764 43.0458 35.469C43.1832 35.5287 43.2996 35.5824 43.4221 35.6242C44.3298 35.9524 45.2434 36.2538 46.1452 36.609C46.6617 36.806 47.1305 36.8328 47.6829 36.6806C49.5013 36.1912 51.3704 36.0479 53.2425 35.9912C55.5386 35.9196 57.8258 36.0211 60.101 36.2777C61.2655 36.409 62.421 36.5463 63.5706 36.7373C65.0187 36.9761 66.4639 37.2566 67.9001 37.555C68.9421 37.7729 69.9902 38.0027 71.0053 38.3011C72.2982 38.6861 73.5732 38.7309 74.878 38.3817C75.6125 38.1786 76.357 38.0132 77.1084 37.8863C78.8193 37.6272 80.5518 37.5412 82.2799 37.6296C82.4262 37.6356 82.5755 37.6058 82.7517 37.5879C82.6979 37.4177 82.6741 37.3073 82.6323 37.1999C81.2405 33.6833 78.7032 30.7383 75.4304 28.8407C74.9856 28.5722 74.4871 28.4051 73.9703 28.3513C73.4883 28.2854 72.9979 28.3741 72.5697 28.6047C72.1414 28.8354 71.7975 29.196 71.5876 29.6346C71.3875 30.0434 71.2532 30.4851 71.0561 30.9954H71.0591ZM79.8793 73.4985C80.0316 73.2866 80.163 73.1165 80.2734 72.9345C81.3364 71.1976 82.2351 69.3771 82.9756 67.4791C83.6799 65.7081 84.1982 63.8689 84.5223 61.9909C84.8607 60.1443 84.9291 58.2584 84.7253 56.3922C84.6567 55.8491 84.5969 55.3029 84.5223 54.7628C84.4715 54.4047 84.4238 54.3748 84.0804 54.4047C82.8741 54.5121 81.6917 54.3957 80.5302 54.0674C79.739 53.8406 78.9627 53.5601 78.2849 53.0796C77.2816 52.3693 76.6874 51.3547 76.2694 50.2296C75.6364 48.5344 75.3946 46.7677 75.3139 44.9741C75.2841 44.428 75.2781 43.8759 75.2273 43.3327C75.1348 42.2972 74.5854 41.563 73.6628 41.1064C73.3544 40.9389 72.995 40.8911 72.6535 40.9721C72.3348 41.0577 72.0208 41.1603 71.713 41.2795C71.3666 41.4138 71.1278 41.6287 71.1606 42.0554C71.1755 42.2046 71.1128 42.3658 71.0979 42.524C70.9181 44.3364 70.4441 46.1074 69.6946 47.7675C69.0436 49.2 68.1718 50.4773 66.9894 51.5277C65.4248 52.9214 63.5855 53.7869 61.5969 54.3539C60.3757 54.7031 59.1336 54.9209 57.8557 54.9866C56.6057 55.0686 55.3504 54.9904 54.1204 54.7538C52.6185 54.4464 51.3943 53.7332 50.5105 52.435C49.6307 51.1111 49.0218 49.6262 48.719 48.0659C48.4144 46.6066 48.3308 45.1233 48.2382 43.6401C48.2024 43.094 48.1964 42.5359 48.068 42.0107C47.874 41.2138 47.4709 40.5065 46.6199 40.2648C44.9837 39.8052 43.3355 39.3874 41.6932 38.9517C41.3618 38.8681 41.3588 38.8741 41.1827 39.1696C40.7049 39.9604 40.2272 40.7483 39.7584 41.5421C39.6733 41.6922 39.6081 41.8527 39.5643 42.0196C39.3852 42.6463 39.2329 43.273 39.0478 43.8968C38.582 45.4606 38.0565 47.0005 37.2802 48.4449C36.9308 49.0955 36.5337 49.7133 36.0171 50.2475C35.6624 50.6489 35.2004 50.9409 34.6855 51.089C34.5063 51.1338 34.3271 51.1756 34.1032 51.0353L34.3719 50.8652C34.5869 50.725 34.8198 50.6026 35.0199 50.4414C35.6887 49.9102 36.1306 49.2 36.5158 48.4539C37.1966 47.1408 37.6176 45.7292 37.9609 44.2967C37.9878 44.1892 37.9997 44.0818 38.0206 43.9744C37.8378 44.0652 37.6753 44.1921 37.5429 44.3474C36.8677 45.0798 36.1057 45.7272 35.2737 46.2753C35.0453 46.4246 34.8592 46.6302 34.7332 46.8722C34.0554 48.1107 33.3597 49.3402 32.6879 50.5817C32.5781 50.782 32.5206 51.0068 32.5207 51.2353C32.5446 52.0828 32.5745 52.9364 32.6581 53.7809C32.8193 55.4044 33.1388 57.004 33.6135 58.5678C34.2645 60.6986 35.1751 62.722 36.3217 64.635C36.9577 65.7034 37.6534 66.7211 38.5402 67.6044C39.3046 68.3684 40.0331 69.1712 40.7617 69.968C41.0274 70.2605 41.317 70.5022 41.6723 70.6753C42.0754 70.8723 42.4666 71.0931 42.8458 71.3259C43.8341 71.9317 44.7567 72.6181 45.3629 73.6447C45.5149 73.9052 45.7538 74.1038 46.0377 74.2058C47.6679 74.8653 49.2982 75.5189 50.9106 76.2172C52.8424 77.0558 54.7205 78.0019 56.4792 79.1688C57.2018 79.6463 57.8885 80.1715 58.4857 80.8072C58.8716 81.1794 59.1483 81.65 59.2859 82.168C59.3307 82.3471 59.3725 82.5381 59.1694 82.7172C59.0918 82.6485 59.0022 82.5829 58.9276 82.5083C58.6887 82.2606 58.4618 81.992 58.211 81.7622C57.0345 80.6729 55.6849 79.8522 54.2697 79.124C52.3647 78.1511 50.3582 77.4229 48.3159 76.8052C47.9755 76.7037 47.6291 76.6142 47.2529 76.5097C47.2887 76.5754 47.2977 76.6082 47.3156 76.6201C47.3903 76.6649 47.4649 76.7067 47.5455 76.7395C49.0798 77.4028 50.5517 78.2018 51.9437 79.127C53.5421 80.1656 54.9728 81.4417 56.1866 82.9111C56.2791 83.0305 56.3597 83.1588 56.4463 83.2812C56.4198 83.3044 56.3939 83.3282 56.3687 83.3528C55.2534 82.3376 54.0559 81.4163 52.7887 80.5983C51.1465 79.5388 49.1937 78.5033 48.7757 78.4943C49.1579 78.7271 49.5222 78.93 49.8685 79.1598C50.8538 79.8074 51.8362 80.464 52.8126 81.1265C52.9857 81.2399 53.1201 81.407 53.2724 81.5503C53.2533 81.5826 53.2334 81.6144 53.2127 81.6458L51.7765 81.1951L51.7466 81.2817C51.869 81.3473 51.9914 81.422 52.1139 81.4906C54.1659 82.5473 56.1005 83.8178 57.8855 85.2807C58.7723 86.0208 59.5875 86.8326 60.3041 87.7428C60.4056 87.8652 60.5429 87.9815 60.5071 88.2203C59.4441 87.7876 58.4319 87.313 57.3451 87.0206C59.7412 89.4553 62.4681 91.5409 65.4457 93.2161C65.4965 93.0251 65.5472 92.846 65.586 92.664C65.7532 91.891 65.9145 91.1121 66.0847 90.3422C66.1175 90.1929 66.0996 90.0139 66.3385 89.9244C66.5116 90.1929 66.6968 90.4615 66.861 90.745C68.1897 93.0161 69.3572 95.3529 69.6916 98.0269C70.5575 96.1467 71.3875 94.2606 71.7458 92.1895C71.8414 92.3327 71.8951 92.476 71.934 92.6222L72.4714 94.759C72.5072 94.8903 72.561 95.0127 72.6297 95.2066C72.8118 94.9918 72.9462 94.8426 73.0686 94.6874C74.0121 93.4936 74.8183 92.2223 75.4782 90.8495C76.2455 89.2469 76.7681 87.5757 76.8576 85.794C76.9233 84.5257 77.2219 83.3081 77.6638 82.1322C78.1475 80.837 78.7029 79.5687 79.2344 78.2914C79.6046 77.3961 79.9958 76.5097 80.1898 75.5607C80.3076 75.0815 80.2942 74.5795 80.151 74.1073C80.0405 73.779 79.8405 73.6209 79.4792 73.6298C78.688 73.6418 77.8967 73.6298 77.1025 73.6179C75.1975 73.588 73.2985 73.7373 71.4114 73.9462C69.6677 74.1401 67.9359 74.4505 66.2011 74.7072C65.8428 74.7579 65.4905 74.8295 65.1352 74.8624C63.86 74.9942 62.5752 75.0032 61.2983 74.8892C59.3262 74.7051 57.4111 74.1266 55.667 73.1881C53.0813 71.7855 51.1136 69.7382 49.5639 67.2612C48.7428 65.9481 48.071 64.5664 47.5395 63.113C47.4918 62.9817 47.4261 62.8623 47.3514 62.7071C47.1245 62.8116 46.9394 62.8862 46.7662 62.9847C45.9809 63.4323 45.3091 64.0143 44.7209 64.6977C44.6373 64.7991 44.5865 64.9603 44.3656 64.9066C44.3656 64.7872 44.3477 64.6708 44.3716 64.5634C44.482 64.071 44.5686 63.5726 44.7299 63.0951C44.9389 62.4445 45.2822 61.8566 45.7988 61.394C46.6856 60.6002 47.7396 60.436 48.8712 60.5882C50.0297 60.7494 51.0867 61.206 52.1109 61.7402C52.1706 61.77 52.2094 61.8297 52.3468 61.9491L51.7944 61.958C51.1763 61.964 50.5553 61.958 49.9402 61.9819C49.5759 61.9968 49.5102 62.0953 49.5759 62.4505C49.6326 62.7787 49.6953 63.107 49.7849 63.4234C50.4338 65.722 51.5898 67.8462 53.1679 69.6397C54.6326 71.343 56.5263 72.6237 58.6529 73.3493C60.3791 73.9264 62.2036 74.1517 64.0185 74.0118C65.38 73.9163 66.7057 73.6925 67.9896 73.2299C70.229 72.4241 71.9399 71.0066 72.976 68.834C73.7553 67.2105 74.0061 65.4826 73.9584 63.7009C73.9524 63.4502 73.8091 63.304 73.6389 63.1697L72.1161 61.961C70.444 60.633 68.7809 59.302 67.1058 57.9799C67.0114 57.9147 66.9367 57.8248 66.8898 57.7201C66.843 57.6154 66.8258 57.4998 66.8401 57.386C66.8879 56.819 67.0222 56.2758 67.3417 55.7954C67.6373 55.3477 68.0344 55.0731 68.5988 55.0881C68.972 55.1 69.3482 55.1119 69.7214 55.0821C70.0049 55.0519 70.2848 54.995 70.5575 54.912C71.0113 54.7837 71.4532 54.5927 71.916 54.4942C73.4412 54.1732 75.0089 54.1056 76.5561 54.2942C77.3742 54.3927 78.1893 54.5091 78.9507 54.8374C79.3275 55.0212 79.7441 55.1084 80.163 55.0911C80.8228 55.0463 81.2468 55.4014 81.5424 55.9446C81.7455 56.3146 81.8291 56.7235 81.8739 57.1443C81.9036 57.3271 81.882 57.5146 81.8113 57.6859C81.7407 57.8572 81.6238 58.0054 81.4737 58.1142C79.5449 59.6959 77.6339 61.2925 75.714 62.8862C74.9556 63.5129 74.9497 63.5129 75.081 64.4858C75.4214 67.0404 76.3142 69.3712 77.8848 71.4244C78.4521 72.1705 79.0881 72.8569 79.8793 73.4985ZM31.6817 100.31C31.822 100.605 31.9444 100.907 32.0997 101.19C32.5267 101.981 33.0641 102.694 33.6314 103.384C34.4914 104.428 35.3394 105.485 36.2052 106.559C36.1336 106.538 36.0619 106.529 35.9962 106.499C33.8391 105.434 31.7624 104.213 29.7827 102.847C28.236 101.76 26.9402 100.414 25.7578 98.952C23.8916 96.6541 22.2822 94.177 20.7923 91.6195C19.8368 89.9751 18.9411 88.2949 18.0214 86.6326C17.9687 86.5311 17.8865 86.4479 17.7855 86.3939C17.7736 86.4983 17.7437 86.6028 17.7557 86.7013C17.8811 87.8204 18.1319 88.9156 18.4364 89.999C18.8097 91.333 19.2008 92.658 19.377 94.0368C19.3949 94.1681 19.4277 94.2964 19.4188 94.4248C19.4128 94.5053 19.3471 94.5799 19.2725 94.7292C19.174 94.5352 19.1083 94.4307 19.0635 94.3113C18.1379 91.8254 16.7285 89.62 15.0624 87.5757C13.7785 85.9999 12.4438 84.472 11.1151 82.935C10.6065 82.3655 10.1647 81.7397 9.79838 81.0698C8.63389 78.8644 7.46045 76.6619 6.68413 74.2804C6.22431 72.8569 5.85705 71.4035 5.47486 69.9531C5.14941 68.7235 4.76722 67.5209 4.10137 66.4226C3.93118 66.1391 3.72814 65.9451 3.37581 65.9899C3.03244 66.0347 2.84134 66.2436 2.75475 66.5688L2.29195 68.2252C2.23521 68.1267 2.1755 68.0521 2.14265 67.9685C1.42371 66.0221 0.798944 64.0421 0.270524 62.0356C-0.0429907 60.8628 -0.0280614 59.6899 0.0406132 58.5141C0.115259 57.1443 0.315311 55.7775 0.727359 54.4554C0.959137 53.6713 1.25061 52.906 1.59923 52.1664C1.87393 51.6053 2.28597 51.098 2.68608 50.6086C3.55197 49.5551 4.45669 48.5255 5.34349 47.4839C5.43306 47.3825 5.51368 47.281 5.59728 47.1766C5.57113 47.1461 5.54425 47.1162 5.51667 47.087L4.45072 47.7346L4.37906 47.666C5.64506 45.0696 7.13201 42.5926 8.72347 40.1813C10.3413 37.7568 12.0545 35.3973 13.8591 33.1083C13.4411 33.2218 12.8141 33.8067 10.518 36.1822C9.47292 37.2626 8.5264 38.4294 7.63961 39.6471L7.56496 39.6023L8.38308 37.4536C8.1681 37.4625 8.09644 37.5968 8.00687 37.6923C6.91106 38.9368 5.80032 40.1693 4.7284 41.4287C3.17304 43.2666 1.69477 45.1683 0.297396 47.1288C0.267538 47.1736 0.225736 47.2124 0.145118 47.3079C0.145118 47.1736 0.130189 47.099 0.145118 47.0303C0.613897 45.2696 1.2887 43.5864 2.08592 41.951C3.35491 39.3486 4.92845 36.9373 6.70205 34.6572C8.51357 32.322 10.5519 30.1718 12.7872 28.2379L13.0739 27.9723C13.1037 27.9454 13.1246 27.9096 13.1186 27.8141C12.9335 27.9036 12.7454 27.9872 12.5663 28.0827C10.5244 29.176 8.24208 29.7433 5.92573 29.7331C4.9449 29.7341 3.96851 29.6015 3.02348 29.3391C2.99959 29.3302 2.98168 29.3063 2.91897 29.2496C3.38477 29.0974 3.8207 28.9661 4.25365 28.8139C5.16135 28.4886 6.07502 28.1782 6.9648 27.8171C8.12331 27.3486 9.0758 26.5786 9.90885 25.6624C11.7451 23.6118 13.6368 21.6116 15.582 19.6639C17.1734 18.0971 18.7888 16.5542 20.64 15.2858C22.5659 13.9638 24.6172 12.9073 26.8655 12.2478C28.1353 11.8651 29.4466 11.6366 30.771 11.5673C30.8714 11.5625 30.9713 11.5495 31.0696 11.5285C31.1084 11.5226 31.1442 11.4957 31.2786 11.433C30.8695 11.3763 30.553 11.3256 30.2335 11.2928C28.5856 11.1488 26.9448 10.9327 25.3158 10.6452C22.7749 10.1647 20.2936 9.48127 17.9348 8.40989C16.1015 7.57427 14.3906 6.55363 12.8857 5.19873C11.9064 4.34576 11.0742 3.33751 10.4224 2.21439C10.3776 2.13381 10.3478 2.05622 10.303 1.96072C10.5359 2.04428 10.5329 2.04726 10.8404 2.34868C11.3383 2.84784 11.8722 3.30967 12.4379 3.73043C13.0043 4.15111 13.5891 4.54643 14.1906 4.91522C14.9967 5.39069 15.8291 5.82012 16.6838 6.20147C16.9107 6.30294 17.1346 6.39844 17.3615 6.49096C17.5765 6.58049 17.7915 6.65808 18.0065 6.73866C18.2215 6.82222 18.4364 6.90578 18.6544 6.98337C18.8843 7.06097 19.1202 7.13259 19.3531 7.20421C19.793 7.34591 20.2382 7.47036 20.6878 7.57726C20.9117 7.63396 21.1357 7.68768 21.3596 7.73543C21.5985 7.78915 21.8373 7.83391 22.0792 7.88465L22.757 8.01596C23.2247 8.10276 23.6959 8.16947 24.1693 8.21591C24.3902 8.2368 24.6112 8.24575 24.8321 8.26067L24.871 8.15921L24.5127 7.88166C22.7629 6.49692 21.9538 4.67349 21.9836 2.45313C22.0036 1.94574 22.1548 1.45218 22.4226 1.02065C22.6196 0.677447 22.8495 0.346184 23.0705 0C23.2646 0.13728 23.1899 0.292466 23.178 0.420793C23.1183 1.53395 23.3153 2.60534 23.6438 3.66179C24.1096 5.15994 25.1397 6.12388 26.5878 6.66405C28.0897 7.21914 29.6573 7.44893 31.2458 7.5116C32.3505 7.55637 33.4613 7.5116 34.572 7.49668C34.7109 7.49136 34.846 7.44913 34.9631 7.37432C33.1806 6.58049 31.404 5.81351 29.708 4.86449C31.1114 5.21067 32.5207 5.56879 33.93 5.90005C35.3603 6.23729 36.7994 6.51781 38.2894 6.66405C38.1311 6.57153 37.9788 6.46708 37.8176 6.3865C36.9464 5.96806 36.1132 5.47479 35.3274 4.91224L35.0856 4.71825C35.2886 4.7481 35.405 4.75407 35.5185 4.78391C36.8801 5.15397 38.2715 5.39272 39.6629 5.61953C42.1829 6.02838 44.7149 6.30593 47.2529 6.54467C48.8175 6.69389 50.3821 6.81327 51.9496 6.90876C54.5593 7.06395 57.1331 7.45192 59.6502 8.1801C62.0388 8.86948 64.3141 9.83939 66.44 11.1376C66.5893 11.2271 66.7386 11.3047 66.9386 11.3465C66.8938 11.2749 66.858 11.1913 66.8013 11.1256C66.1003 10.3788 65.2825 9.7508 64.3797 9.2664C62.8868 8.4278 61.2774 7.88763 59.6203 7.48176C57.6274 7.0172 55.6005 6.71282 53.559 6.57153C53.4784 6.56966 53.401 6.53896 53.3411 6.48499C53.4694 6.45514 53.5978 6.41635 53.7292 6.39546C55.7673 6.09833 57.8212 5.92096 59.8801 5.86424C61.8597 5.80456 63.8274 5.90304 65.7861 6.15969C67.9956 6.44619 70.1454 6.97442 72.1668 7.94433C73.5553 8.60984 74.8153 9.46038 75.8484 10.6183C75.9828 10.7675 76.138 10.8959 76.2843 11.0361C76.2336 10.5944 76.1022 10.3975 74.872 8.85157C75.29 9.16792 75.723 9.47232 76.135 9.8006C77.9595 11.2449 79.5003 13.0147 80.6795 15.0202C81.835 17.0287 82.5009 19.1834 82.6591 21.4963C82.6711 21.6693 82.6442 21.8544 82.9279 21.8902C82.9607 21.8096 83.0204 21.726 83.0264 21.6395C83.0951 20.9233 83.1578 20.204 83.2175 19.4878C83.2324 19.3087 83.2414 19.1297 83.3041 18.9417C83.522 19.2908 83.5429 19.6937 83.6564 20.0817C83.8863 19.455 83.4713 17.1869 82.8741 15.5962C82.3307 14.1652 81.546 12.8379 80.5541 11.6718C79.5568 10.49 78.3595 9.53201 77.1264 8.60387C77.5742 8.85456 78.0281 9.09629 78.47 9.3619C80.2833 10.4317 81.977 11.6923 83.522 13.1222C85.4031 14.8829 86.9856 16.8616 88.0814 19.2102C88.9175 20.9949 89.3773 22.872 89.4549 24.8417C89.4579 24.9804 89.4842 25.1176 89.5326 25.2476C89.8849 23.7554 89.9297 22.2394 89.9804 20.7114C90.9717 22.9347 91.5898 25.2476 91.7152 27.6828C91.8406 30.124 91.4734 32.4757 90.3746 34.7617C90.6433 34.7109 90.7329 34.5707 90.8314 34.4424C91.2405 33.9082 91.5301 33.3173 91.7779 32.6995C91.832 32.552 91.9074 32.4132 92.0019 32.2877C92.1959 34.0484 92.0347 35.6988 90.5955 36.9432L91.5182 38.3847C91.548 38.4354 91.5898 38.4802 91.6018 38.5339C91.7122 39.0174 92.0556 39.1845 92.5005 39.2621C92.8678 39.3247 93.2261 39.4411 93.6411 39.5486C93.6471 40.1335 93.6859 40.7065 93.653 41.2765C93.5993 42.2106 93.5037 43.1417 93.4052 44.0728C93.3787 44.328 93.4135 44.5859 93.5067 44.8249C93.7904 45.6247 94.0651 46.4275 94.304 47.2422C94.5727 48.1703 94.8205 49.1045 94.925 50.0684C95.0683 51.3755 95.0325 52.6648 94.5846 53.9093C94.4174 54.3659 94.1606 54.7896 93.9188 55.2164C93.8202 55.3895 93.7396 55.5238 93.868 55.7237C93.9298 55.8379 93.9577 55.9673 93.9486 56.0968C93.9038 57.004 94.1188 57.8725 94.3308 58.7379C94.7279 60.3733 94.9131 62.0326 94.9788 63.7069C95.0683 66.1122 94.7817 68.4818 94.3129 70.8395C93.7736 73.4805 93.0523 76.081 92.1541 78.6226C91.6078 80.2024 91.0445 81.7762 90.4641 83.3439C90.291 83.8124 90.0282 84.2511 89.8073 84.7047C89.2044 85.95 88.6934 87.2377 88.2785 88.5575C88.2486 88.65 88.2039 88.7366 88.1292 88.9156L87.7649 88.1755C87.6186 87.8771 87.4962 87.8413 87.2544 88.08C86.7908 88.5369 86.4153 89.0751 86.1466 89.6677C85.7316 90.6048 85.3464 91.5508 84.9821 92.5088C83.101 97.4777 80.578 102.08 77.2547 106.237C75.362 108.562 73.3362 110.776 71.1875 112.868C69.4401 114.566 67.8185 116.388 66.3355 118.32C66.2579 118.422 66.1713 118.514 66.0608 118.643L65.6338 118.189C64.1216 116.644 62.5509 115.158 60.9251 113.733C59.1049 112.138 57.2013 110.639 55.2221 109.245C53.134 107.757 50.9485 106.411 48.6801 105.216C47.8888 104.798 47.041 104.496 46.1631 104.321C44.9972 104.074 43.7815 104.245 42.7293 104.804C42.2098 105.079 42.0008 105.518 42.0814 106.1L42.1292 106.398C38.1819 105.139 34.5989 103.342 31.7981 100.22L31.6847 100.31H31.6817Z" fill="#323838"/>
</svg>
