<svg width="87" height="443" viewBox="0 0 87 443" fill="none" xmlns="http://www.w3.org/2000/svg">
<path d="M0.11632 31.996C0.11632 26.0017 1.08557 20.6301 3.02407 15.8812C4.96258 11.1324 7.83156 7.31783 11.631 4.43741C15.4305 1.63483 20.0054 0.155698 25.3556 0L25.3556 21.2528C22.3316 21.5642 20.0054 22.6152 18.377 24.4057C16.8262 26.1963 16.0508 28.5318 16.0508 31.4122C16.0508 34.3704 16.7099 36.7059 18.0281 38.4186C19.4238 40.1313 21.3235 40.9876 23.7273 40.9876C25.7433 40.9876 27.4104 40.287 28.7286 38.8857C30.0468 37.5623 31.1324 35.8885 31.9853 33.8644C32.8382 31.9182 33.8075 29.1156 34.8931 25.4567C36.5214 20.163 38.1497 15.8423 39.7781 12.4948C41.4064 9.14729 43.8102 6.26687 46.9893 3.85354C50.1685 1.44021 54.3169 0.233549 59.4345 0.233549C67.0334 0.23355 72.9652 2.9972 77.2299 8.5245C81.5722 14.0518 83.7433 21.2528 83.7433 30.1277C83.7433 39.1582 81.5722 46.4371 77.2299 51.9644C72.9652 57.4917 66.9947 60.45 59.3182 60.8392V39.236C61.9546 39.0803 64.0094 38.1072 65.4826 36.3167C67.0334 34.5261 67.8088 32.2296 67.8088 29.427C67.8088 27.0137 67.1497 25.0675 65.8316 23.5883C64.5909 22.1092 62.7687 21.3696 60.365 21.3696C57.7286 21.3696 55.6738 22.6152 54.2005 25.1064C52.7273 27.5976 51.1377 31.49 49.4318 36.7838C47.6484 42.0775 45.9425 46.3592 44.3142 49.6289C42.6858 52.9764 40.3209 55.8568 37.2193 58.2702C34.1177 60.6835 30.1243 61.8902 25.2393 61.8902C20.5869 61.8902 16.361 60.6835 12.5615 58.2702C8.76204 55.9347 5.73798 52.5093 3.48931 47.9941C1.24065 43.4788 0.11632 38.1461 0.11632 31.996Z" fill="#323838"/>
<path d="M65.8316 138.521H0.930487L0.930487 118.553H9.77006C6.90108 116.529 4.57487 113.765 2.79145 110.262C1.08557 106.837 0.232627 103.022 0.232627 98.8181C0.232628 93.8357 1.31819 89.4372 3.48931 85.6226C5.73798 81.808 8.95589 78.8497 13.1431 76.7478C17.3302 74.6459 22.254 73.5949 27.9144 73.5949H65.8316L65.8316 93.4465H30.5896C26.2473 93.4465 22.8743 94.5753 20.4706 96.8329C18.0669 99.0906 16.865 102.127 16.865 105.941C16.865 109.834 18.0669 112.909 20.4706 115.166C22.8743 117.424 26.2473 118.553 30.5896 118.553H65.8316V138.521Z" fill="#323838"/>
<path d="M33.4973 148.894C40.1658 148.894 46.0201 150.14 51.0602 152.631C56.1003 155.2 59.9773 158.664 62.6912 163.024C65.4051 167.383 66.762 172.249 66.762 177.62C66.762 181.902 65.8703 185.795 64.0869 189.298C62.3035 192.879 59.8997 195.681 56.8757 197.706H87L87 217.674H0.930483L0.930484 197.706H10.2353C7.13369 195.837 4.65241 193.151 2.79145 189.648C0.930485 186.223 3.46418e-06 182.214 3.66415e-06 177.62C3.89802e-06 172.249 1.35696 167.383 4.07086 163.024C6.8623 158.664 10.7781 155.2 15.8182 152.631C20.9358 150.14 26.8289 148.894 33.4973 148.894ZM33.381 197.706C38.3436 197.706 42.2594 196.304 45.1283 193.502C47.9973 190.777 49.4318 187.429 49.4318 183.459C49.4318 179.489 47.9973 176.102 45.1283 173.3C42.3369 170.575 38.4599 169.213 33.4973 169.213C28.5348 169.213 24.5802 170.575 21.6337 173.3C18.7647 176.102 17.3302 179.489 17.3302 183.459C17.3302 187.429 18.7647 190.777 21.6337 193.502C24.5027 196.304 28.4185 197.706 33.381 197.706Z" fill="#323838"/>
<path d="M0 261.781C2.7793e-07 255.397 1.35695 249.636 4.07086 244.498C6.78476 239.438 10.6618 235.429 15.7019 232.47C20.742 229.59 26.635 228.15 33.381 228.15C40.0495 228.15 45.9037 229.629 50.9438 232.587C56.0615 235.545 59.9773 239.594 62.6912 244.732C65.4051 249.87 66.762 255.631 66.762 262.014C66.762 268.398 65.4051 274.159 62.6912 279.297C59.9773 284.435 56.0615 288.483 50.9438 291.441C45.9037 294.399 40.0495 295.879 33.381 295.879C26.7126 295.879 20.8195 294.361 15.7019 291.324C10.6618 288.366 6.78476 284.279 4.07085 279.063C1.35695 273.925 -2.7793e-07 268.164 0 261.781ZM17.2139 261.781C17.2139 265.595 18.6096 268.826 21.4011 271.473C24.1925 274.198 28.1858 275.56 33.381 275.56C38.5762 275.56 42.5695 274.236 45.361 271.59C48.1524 269.021 49.5481 265.829 49.5481 262.014C49.5481 258.122 48.1524 254.891 45.361 252.322C42.6471 249.753 38.6537 248.468 33.381 248.468C28.1858 248.468 24.1925 249.714 21.4011 252.205C18.6096 254.774 17.2139 257.966 17.2139 261.781Z" fill="#323838"/>
<path d="M0.930478 346.292L28.1471 326.44H0.930478L0.930479 306.472H87V326.44H39.4291L65.8315 346.175V370.815L33.2647 343.723L0.930476 371.048L0.930478 346.292Z" fill="#323838"/>
<path d="M65.8315 443H0.930473L0.930474 423.032H9.77005C6.90106 421.008 4.57486 418.244 2.79144 414.741C1.08555 411.315 0.232614 407.501 0.232614 403.297C0.232614 398.315 1.31818 393.916 3.4893 390.101C5.73796 386.287 8.95588 383.329 13.143 381.227C17.3302 379.125 22.254 378.074 27.9144 378.074H65.8315V397.925H30.5896C26.2473 397.925 22.8743 399.054 20.4706 401.312C18.0668 403.569 16.865 406.605 16.865 410.42C16.865 414.313 18.0668 417.388 20.4706 419.645C22.8743 421.903 26.2473 423.032 30.5896 423.032H65.8315L65.8315 443Z" fill="#323838"/>
</svg>
